<svg width="1757" height="2000" viewBox="0 0 1757 2000" fill="none" xmlns="http://www.w3.org/2000/svg">
<path fill-rule="evenodd" clip-rule="evenodd" d="M830.844 12.7322C860.16 -4.24395 896.227 -4.24395 925.543 12.7322L1709.56 465.107C1738.88 482.084 1756.91 513.335 1756.91 547.191V1452.71C1756.91 1486.67 1738.88 1517.82 1709.56 1534.8L925.543 1987.27C896.227 2004.24 860.16 2004.24 830.844 1987.27L47.4055 1534.8C18.0893 1517.82 0.0559082 1486.67 0.0559082 1452.71V547.191C0.0559082 513.335 18.0893 482.084 47.4055 465.107L830.844 12.7322Z" fill="#689F63"/>
<path fill-rule="evenodd" clip-rule="evenodd" d="M1533.84 1636.2L925.543 1987.27C924.574 1987.83 923.598 1988.37 922.614 1988.9L923.213 1954.46C923.213 1934.38 925.126 1887.53 927.038 1850.87C936.6 1673.33 934.688 1449.26 922.257 1324.96C915.245 1253.56 901.539 1166.86 893.889 1147.74C892.296 1143.59 899.627 1140.09 931.182 1129.25C988.873 1109.17 1038.91 1083.99 1046.56 1071.56C1060.27 1047.97 1035.73 1014.19 1004.49 1014.19C999.073 1014.19 982.817 1019.92 967.836 1026.62C896.439 1059.45 753.326 1098.01 670.773 1106.62C613.719 1112.68 525.11 1109.17 463.594 1098.01C430.126 1091.96 370.204 1069.33 320.162 1043.51C262.47 1013.55 227.091 973.706 216.572 926.533C210.835 901.034 212.429 850.036 219.76 821.35C227.728 789.795 250.04 743.897 270.439 717.123C361.279 597.596 548.697 494.007 740.895 457.67C802.093 446.196 888.79 444.921 954.449 454.802C1026.48 465.639 1089.28 485.719 1151.43 517.593C1191.59 538.311 1210.71 552.654 1255.34 595.365C1321.64 658.794 1362.43 714.254 1400.68 792.663C1456.46 906.771 1478.14 1007.81 1505.55 1278.74C1515.29 1373.92 1527.38 1529.81 1533.84 1636.2ZM407.023 682.698C375.787 666.762 378.337 621.82 411.485 607.477C450.371 590.583 486.707 632.657 464.396 668.993C452.602 688.754 429.653 694.173 407.023 682.698ZM627.589 638.075C596.991 656.881 596.991 702.142 627.589 720.947C657.869 739.115 697.074 715.21 697.074 678.874C697.074 643.813 656.913 620.226 627.589 638.075Z" fill="white"/>
</svg>
